<svg width="20" height="20" viewBox="0 0 20 20" fill="none" xmlns="http://www.w3.org/2000/svg">
<path d="M17.9999 4.99999H15.8486C15.3511 4.99999 15 4.4975 15 3.99999C15 2.34314 13.6568 1 12 1C10.3431 1 8.99999 2.34314 8.99999 3.99999C8.99999 4.4975 8.64883 4.99999 8.15132 4.99999H5.99999C5.44771 4.99999 4.99999 5.44771 4.99999 5.99999V8.15132C4.99999 8.64883 4.4975 8.99999 3.99999 8.99999C2.34314 8.99999 1 10.3431 1 12C1 13.6568 2.34314 15 3.99999 15C4.4975 15 4.99999 15.3511 4.99999 15.8486V18C4.99999 18.5523 5.44771 19 5.99999 19L18 19C18.5523 19 19 18.5522 19 17.9999V15.8486C19 15.3511 18.4975 15 18 15C16.3431 15 15 13.6568 15 12C15 10.3431 16.3431 8.99999 18 8.99999C18.4975 8.99999 19 8.64883 19 8.15132L19 5.99999C19 5.44771 18.5522 4.99999 17.9999 4.99999Z" stroke="white" stroke-linecap="round" stroke-linejoin="round"/>
</svg>
