<svg width="19" height="19" viewBox="0 0 19 19" fill="none" xmlns="http://www.w3.org/2000/svg">
<path fill-rule="evenodd" clip-rule="evenodd" d="M10.5869 0.879815C11.7575 -0.292645 13.6563 -0.293363 14.8279 0.87821L17.3197 3.37006C18.4813 4.53164 18.4934 6.41211 17.3468 7.58851L8.11367 17.0618C7.3611 17.8339 6.32893 18.2693 5.25114 18.2692L2.49899 18.2691C1.07761 18.2691 -0.0575221 17.0842 0.00225744 15.663L0.120411 12.854C0.162543 11.8523 0.578842 10.903 1.28693 10.1938L10.5869 0.879815ZM13.4148 2.29349C13.0242 1.90297 12.3913 1.90321 12.0011 2.29403L10.5146 3.78272L14.4387 7.70681L15.9156 6.1915C16.2978 5.79936 16.2938 5.17254 15.9066 4.78535L13.4148 2.29349ZM2.70115 11.6081L9.10149 5.19801L13.0427 9.13917L6.68249 15.6648C6.30621 16.0508 5.79012 16.2685 5.25122 16.2685L2.49908 16.2684C2.2148 16.2684 1.98778 16.0314 1.99973 15.7471L2.11789 12.9381C2.13895 12.4373 2.3471 11.9626 2.70115 11.6081ZM17.7647 18.1959C18.3168 18.1959 18.7643 17.7481 18.7643 17.1956C18.7643 16.6431 18.3168 16.1952 17.7647 16.1952H11.643C11.0909 16.1952 10.6434 16.6431 10.6434 17.1956C10.6434 17.7481 11.0909 18.1959 11.643 18.1959H17.7647Z" fill="black"/>
</svg>
